<svg width="1000" height="1000" viewBox="0 0 1000 1000" fill="none" xmlns="http://www.w3.org/2000/svg">
<path d="M638.949 800.345C644.219 797.085 651.09 798.155 656.73 803.105C659.31 805.365 659.14 812.336 656.48 813.036C655.38 813.326 654.44 813.846 654.39 814.196C654.34 814.537 654.21 816.947 654.11 819.536C653.9 825.096 650.95 829.685 647.3 830.126C645.44 830.356 643.78 829.285 640.58 825.815C630.63 815.015 630.04 805.845 638.949 800.345Z" fill="black"/>
<path d="M894.78 517.395C899.369 517.275 903.1 519.905 905.56 524.985C907.83 529.685 908.77 538.365 907.17 539.965C906.73 540.405 904.16 539.525 901.47 538.015C896.89 535.445 896.35 535.356 893.28 536.666C891.46 537.436 888.969 539.246 887.74 540.696C884.829 544.095 879.65 544.266 876.06 541.076C874.25 539.466 873.36 537.416 872.92 533.826C872.41 529.606 872.68 528.285 874.67 525.355C876.64 522.445 878.251 521.515 884.5 519.675C888.62 518.466 893.239 517.435 894.78 517.395Z" fill="black"/>
<path fill-rule="evenodd" clip-rule="evenodd" d="M400.7 121.036C427.37 104.976 467.86 110.885 491.6 134.305C499.43 142.025 503.1 147.906 506.92 158.826C508.99 164.745 509.07 164.826 512.5 164.486C516.52 164.096 519.05 162.165 519.88 158.855C520.2 157.575 522.02 153.225 523.93 149.175C531.02 134.126 542.81 124.386 561.28 118.336C572.75 114.586 583.91 112.946 591.91 113.866C600.84 114.886 611.4 117.786 617.56 120.906C622.44 123.376 624.42 123.715 637.48 124.345C654.26 125.165 658.91 126.435 676.26 134.965C695.24 144.295 707.37 154.715 716.24 169.305L720.17 175.765L727.65 176.925C752.87 180.825 773.88 193.945 787.76 214.475C790.24 218.135 792.82 222.865 793.5 224.975C795.2 230.245 796.11 231.165 800.33 231.935C810.83 233.845 825.2 244.465 834.04 256.855C839.57 264.605 844.32 274.906 845.15 280.916C845.75 285.286 846.06 285.636 854.05 290.906C858.61 293.906 864.83 298.836 867.88 301.866C881.86 315.726 892.92 338.946 895 358.826C895.65 364.985 896.18 366.306 899.39 369.826C908.6 379.906 912.64 388.545 912.96 398.855C913.17 405.405 913.47 406.275 917.32 411.355C929.16 426.995 934.48 443.926 934.48 465.996C934.48 478.425 934.51 478.576 937.49 482.336C941.289 487.135 945.97 497.135 947.88 504.555C951.92 520.195 952.41 545.966 948.98 561.326C946.7 571.526 940.37 584.546 936.12 587.786C932.93 590.216 932.73 590.755 932.08 598.555C930.65 615.715 927.28 623.686 917.27 633.626C913.26 637.605 908.71 641.755 907.15 642.845L904.33 644.826L905.59 653.505C908.2 671.345 902.86 687.296 889.48 701.616C882.72 708.855 882.48 709.286 882.48 714.175C882.48 719.855 879.26 729.616 874.96 736.946C869.56 746.156 859.58 753.915 848.32 757.645C847.409 757.945 845.17 761.036 843.34 764.505C836.65 777.225 821.84 788.276 809.29 789.946C803.82 790.676 803.29 791.176 801.58 797.326C799.72 804.026 794.8 813.415 789.84 819.725C784.58 826.435 772.01 836.645 765.03 839.885C752.76 845.575 747.68 846.705 733.52 846.885L720.06 847.055L716.26 853.446C710.42 863.256 701.24 871.295 689.18 877.175C683.57 879.915 676.5 882.736 673.48 883.446C665.14 885.406 648.37 885.125 639.31 882.885C632.39 881.185 631.4 881.145 629.31 882.505C622.99 886.605 616.4 887.826 600.48 887.826C586.14 887.826 584.31 887.605 575.98 884.935C550.3 876.705 530.54 856.545 523.6 831.505C522.54 827.675 521.18 823.625 520.57 822.505C519.87 821.184 519.48 811.804 519.48 796.015C519.48 774.645 519.28 771.395 517.85 770.215C515.77 768.486 508.52 768.646 507.38 770.446C506.9 771.208 506.5 782.427 506.5 795.395C506.49 808.355 506.01 821.625 505.43 824.895C499.68 857.385 476.77 880.635 444.51 886.765C434.51 888.655 418.06 888.665 410.25 886.775C407.1 886.005 402.33 884.276 399.65 882.916L394.78 880.446L387.36 882.795C376.31 886.305 366.09 887.476 356.66 886.286C340.47 884.256 327.2 877.955 317.33 867.605L311.68 861.685L300.83 861.626C292.54 861.576 288.33 861.035 282.98 859.345C267.43 854.425 251.22 843.366 241.68 831.196C236.52 824.616 229.48 812.025 229.48 809.395C229.48 806.185 227.25 805.326 218.96 805.326C207.66 805.326 200.29 803.766 190.94 799.406C181.3 794.906 171.91 786.555 165.12 776.425C161.17 770.545 159.74 769.216 155.72 767.746C145.83 764.106 143.93 763.145 138.6 759.045C132.44 754.305 125.86 744.926 124.86 739.456C124.37 736.806 122.47 734.105 117.86 729.475C111.17 722.755 105.19 713.375 101.43 703.675C99.61 699.015 99.1197 695.595 98.9797 686.826L98.8 675.826L90.8 670.145C73.5002 657.845 66.68 646.535 59.3 617.826C57.3101 610.126 56.9704 606.226 56.9104 590.826C56.8304 573.416 56.7497 572.676 54.2698 568.326C49.1998 559.436 47.9803 553.866 48.0002 539.826C48.0102 529.366 48.4503 525.306 50.2502 519.036C53.5202 507.676 58.6197 498.315 65.6096 490.845L71.76 484.265L70.4797 475.355C69.0098 465.095 69.6603 456.995 72.5403 449.395C77.6402 435.995 83.4802 428.056 92.6301 422.126C95.2996 420.406 97.4691 418.506 97.47 417.906C97.46 417.316 96.7897 414.346 95.9797 411.326C92.9097 399.896 94.6399 383.196 100.1 371.666C103.09 365.336 111.54 354.755 114.3 353.885C116.78 353.095 118.23 349.646 117.9 345.326C117.47 339.846 120.04 328.456 123.32 321.295C130.3 306.025 143.42 293.585 159.93 286.605L164.88 284.515L166.23 277.666C166.97 273.906 169.3 267.396 171.4 263.206C182.54 241.016 199.4 227.726 222.44 222.956C227.669 221.876 227.93 221.666 228.68 218.026C230.16 210.896 237.43 200.015 245.85 192.345C256.72 182.445 275.17 174.305 290.56 172.635C297.68 171.855 298.05 171.686 299.67 168.446C309.68 148.396 326.77 134.876 354.42 125.126C361.63 122.586 378.01 121.655 387.76 123.225L395.1 124.406L400.7 121.036ZM736.56 470.855C714.02 473.405 698.9 477.886 689.28 484.866C682.1 490.076 675.16 499.116 671.56 507.956C659.75 536.935 660.569 535.386 652.99 542.916C639.69 556.115 625.31 563.956 612.39 565.036C605.85 565.586 605.23 565.845 602.53 569.265C600.94 571.265 597.47 573.875 594.81 575.055C592.15 576.235 583 580.215 574.48 583.895C551.48 593.825 533.39 602.656 529.79 605.706C528 607.216 525.58 610.916 524.29 614.116L521.98 619.826L522.27 679.805C522.56 738.865 522.6 739.846 524.72 744.086C529.96 754.585 542.3 762.605 554.69 763.565C570.43 764.795 577.16 774.496 568.37 783.286C564.42 787.236 559.16 787.326 547.82 783.626C543.272 782.146 539.333 781.136 539.08 781.395C538.71 781.765 538.13 808.056 538.41 811.826C538.451 812.376 539.861 814.406 541.54 816.326C545.56 820.935 547.2 824.126 548.48 829.805C549.78 835.615 555.05 843.995 561.4 850.345C568.38 857.325 581.52 863.545 592.98 865.305C600.32 866.435 601.53 866.435 608.05 865.255C611.31 864.665 617.93 862.195 622.76 859.755C627.6 857.316 632.57 855.326 633.81 855.326C635.06 855.326 639.88 856.665 644.53 858.305C655.9 862.315 664.71 862.415 674.22 858.645C687.38 853.435 694.16 847.435 695.6 839.725C696.44 835.235 696.26 834.565 692.62 828.395C686.24 817.575 684.289 812.365 683.74 804.645C683.46 800.705 683.52 796.295 683.88 794.855C684.251 793.404 688.33 788.185 692.949 783.236C703.939 771.496 706.26 766.055 704.59 755.965C703.27 748.045 698.74 736.565 694.23 729.765C692.509 727.175 684.749 718.455 676.99 710.395C668.65 701.755 661.97 693.895 660.67 691.225C656.8 683.235 658.42 674.965 664.449 671.845C671.959 667.955 677.38 671.496 685.07 685.286C688.32 691.116 701.44 706.156 705.17 708.326C706.98 709.376 708.26 709.305 712.67 707.876C726.29 703.466 739.66 695.226 748.61 685.736C751.67 682.486 756.52 677.346 759.38 674.326C765.31 668.056 774.97 654.305 778.84 646.635C787.65 629.155 791.31 595.655 785.15 588.845C780.549 583.765 750.179 580.596 731.49 583.255C728.46 583.675 724.56 583.635 722.8 583.145C714.74 580.925 711.58 570.066 717.32 564.326C721.32 560.336 726.74 559.085 735.04 560.265C738.77 560.785 746.12 560.975 751.4 560.685C759.66 560.215 762.15 560.486 769.48 562.626C779.63 565.596 784.2 565.296 785.12 561.626C787.54 551.996 778.65 523.006 767.55 504.326C763.11 496.856 753.89 484.165 746.61 475.525L742.15 470.225L736.56 470.855ZM332.48 471.626C312.78 460.846 299.6 457.485 281.63 458.675C270.37 459.405 268.23 460.545 256.1 472.235C240.44 487.335 227.11 508.086 223.05 523.706C220.81 532.346 219.24 549.825 220.02 557.645C220.82 565.665 220.4 565.365 234.89 568.305C245.95 570.555 254.3 570.845 262.85 569.265C269.71 567.995 274.34 569.186 278.03 573.156C282.67 578.166 280.59 587.775 274.28 590.435C269.419 592.485 244.28 592.225 234.12 590.025C225.39 588.135 219.89 587.856 219.03 589.246C217.22 592.176 216.59 601.216 217.55 610.555C219.37 628.305 223.2 640.786 230.57 653.036C247.91 681.856 271.75 699.945 299.58 705.425C308.68 707.215 324.92 706.175 331.23 703.385C336.76 700.955 339 698.165 347.48 683.145C354.07 671.465 360.67 667.305 367.21 670.685C373.45 673.915 375.18 681.066 371.58 688.826C370.56 691.026 366.53 697.326 362.61 702.826C358.7 708.325 355.492 713.494 355.49 714.315C355.48 715.135 358.11 719.635 361.34 724.315C373.35 741.775 375.69 754.436 369.71 769.656C367.89 774.276 364.34 780.485 361.05 784.775C357.99 788.774 355.48 792.535 355.48 793.135C355.48 793.725 358.52 795.815 362.23 797.765C365.94 799.715 372.13 803.785 375.98 806.795C387.78 816.055 387.3 815.925 395.32 811.836C399.109 809.906 403.29 808.335 404.6 808.345C410.36 808.405 420.44 815.685 423.96 822.336C425.94 826.096 426.77 833.435 425.57 836.595C424.36 839.755 420.2 841.726 416.61 840.826C414.08 840.185 409.06 835.575 406.45 831.496L404.96 829.166L399.83 831.746C392.92 835.216 387.63 835.165 383.38 831.586C381.58 830.076 378.64 828.335 376.84 827.715C375.04 827.095 368.93 823.875 363.27 820.555C357.61 817.235 350.45 813.805 347.35 812.935C340.64 811.035 334.98 805.495 333.91 799.795C332.17 790.545 334.13 785.545 345.5 770.215C356.36 755.576 355.92 752.615 338.93 725.545C338.83 725.396 334.81 725.956 329.99 726.795C319.15 728.685 310.38 728.685 299.98 726.805C289.41 724.895 288.73 724.946 287.94 727.576C286.58 732.106 281.33 741.606 277.21 746.996C269.24 757.405 267.48 760.565 267.48 764.475C267.48 773.875 265.48 779.046 255.93 794.326C251.86 800.836 251.71 803.126 254.89 809.956C261.11 823.316 282.23 837.565 299.13 839.805C303.53 840.385 304.97 840.116 309.12 837.906C314.98 834.786 320.73 834.575 325.24 837.315C329.02 839.625 332.21 844.416 333.1 849.116C333.86 853.136 337.84 856.356 346.59 860.036C352.04 862.326 354.45 862.735 362.98 862.775C372.75 862.825 373.19 862.726 381.91 858.536C392.33 853.526 393.06 853.566 404.79 859.616C409.08 861.826 414.93 864.235 417.79 864.965C424.64 866.705 437.29 865.925 445.54 863.255C458.49 859.045 471.779 849.456 476.03 841.236C477.29 838.786 479.44 825.885 479.47 820.555C479.48 819.855 481.28 817.326 483.48 814.946C486.72 811.426 487.48 809.865 487.47 806.715C487.45 796.296 483.04 780.416 478.12 773.116C476.9 771.306 471.89 766.826 466.98 763.166C457.46 756.076 454.48 752.046 454.48 746.326C454.48 740.026 461.87 732.326 467.91 732.326C470.831 732.326 476.22 735.076 481.5 739.246C484.34 741.486 487.22 743.326 487.91 743.326C489.8 743.325 491.94 740.375 493.88 735.116C495.42 730.936 495.66 724.705 496.03 679.855C496.32 645.385 496.1 627.635 495.35 624.065C493.16 613.605 481.38 592.956 473.84 586.336C467.52 580.786 455.64 573.475 443.48 567.645C437.15 564.615 426.13 559.305 418.98 555.845C411.83 552.395 403.06 548.226 399.48 546.586C387.99 541.316 379.84 532.155 369.45 512.826C358.22 491.906 347.3 479.736 332.48 471.626ZM822.25 586.105C807.96 585.975 809 584.685 808.85 602.565C808.78 611.725 808.12 620.815 807.21 625.305L805.699 632.786L810.02 636.815C816.98 643.295 818.56 650.815 814.05 656.015C811.78 658.645 811.12 658.826 803.93 658.826H796.23L792.11 666.876C787.52 675.815 784.16 680.375 774.23 691.135C770.52 695.155 767.48 699.006 767.48 699.696C767.48 701.056 769.881 703.885 773.62 706.935C776.68 709.425 782.009 717.075 784.49 722.525C786.029 725.925 786.44 729.086 786.46 737.626C786.5 760.456 779.57 774.526 770.57 769.876C768.94 769.026 766.9 767.335 766.04 766.105C764.06 763.285 763.98 753.986 765.89 748.576C767.35 744.446 767.77 741.215 767.59 735.545C767.5 732.836 765.95 730.665 758.84 723.295C754.08 718.356 749.601 714.326 748.88 714.326C748.16 714.326 745.86 715.496 743.77 716.916C738.78 720.336 731.81 723.855 725.02 726.395C721.99 727.525 719.3 728.815 719.02 729.255C718.75 729.696 719.96 734.506 721.71 739.946C724.41 748.326 724.9 751.346 724.91 759.826C724.92 772.266 723.36 776.156 712.4 790.996L704.63 801.515L706.01 806.095C707.33 810.495 713.56 820.595 715.87 822.105C716.79 822.695 721.27 823.416 734.98 825.166C735.53 825.236 738.96 824.655 742.6 823.885C757.45 820.735 771.62 809.646 778.46 795.826C781.52 789.626 781.979 787.655 782.449 778.656C782.919 769.586 783.25 768.185 785.48 765.775C788.5 762.495 793.32 760.326 797.54 760.326C799.76 760.326 801.42 761.196 803.29 763.326C806.39 766.855 808.18 767.025 813.53 764.295C818.249 761.896 823.08 755.606 824.57 749.916C827.25 739.736 831.43 735.145 839.61 733.395C851.48 730.845 858.77 725.075 864.59 713.605C867.78 707.315 867.98 706.335 867.98 696.776V686.626L874.58 680.225C884.49 670.615 886.46 662.655 883.72 643.326C882.32 633.426 878.41 623.666 871.83 613.666C865.41 603.886 858.99 597.886 849.8 593.076C840.12 588.006 833.02 586.215 822.25 586.105ZM194.91 596.326C194.19 596.326 193.34 596.745 193.02 597.255C191.529 599.675 175.77 604.465 164.21 606.025L152.03 607.666L147.19 612.196C143.87 615.296 141.1 619.336 138.39 625.015C132.58 637.185 129.46 640.235 118.23 644.725C116.17 645.545 114.48 646.866 114.48 647.656C114.48 648.436 115.7 651.726 117.19 654.956C119.71 660.416 119.94 662.046 120.47 678.326C120.98 694.115 121.27 696.266 123.38 700.326C127.76 708.716 132.48 714.145 138.93 718.225C142.45 720.435 145.69 722.836 146.15 723.536C146.61 724.246 147.21 727.746 147.48 731.326C147.98 737.786 148.01 737.845 152.75 741.015C155.66 742.955 160.38 744.836 164.88 745.836C173.4 747.735 174.94 749.066 181.38 760.126C186.74 769.336 190.58 773.716 196.16 776.986C204.35 781.786 210.9 783.256 223.48 783.116C229.809 783.046 235.879 782.566 236.98 782.036C243.43 778.936 245.96 774.376 247.31 763.326C248.62 752.656 251.04 747.185 259.18 736.525C269.96 722.395 270.82 718.345 263.74 715.105C239.781 704.175 212.06 670.736 202.15 640.826C198.14 628.716 197.33 624.156 196.79 610.576C196.36 599.757 195.91 596.327 194.91 596.326ZM155.62 431.185C152.19 429.865 143.17 430.975 137.67 433.385C133.43 435.235 133.26 435.236 128.27 433.336L123.18 431.406L120.19 433.916C118.54 435.306 115.03 437.536 112.37 438.876C101.69 444.296 95.5298 453.136 93.2698 466.326C92.2298 472.426 92.3102 474.596 93.8801 482.366C96.04 493.075 95.82 493.636 86.6204 500.715C75.5205 509.265 70.2899 520.795 70.0998 537.235C70.0299 542.985 70.5599 548.826 71.4299 551.826C72.8601 556.766 79.7797 569.775 81.5598 570.876C82.9698 571.746 82.6603 577.855 80.8704 584.685C77.4304 597.745 81.2697 619.666 88.9797 631.076C90.9397 633.966 92.9104 636.326 93.3704 636.326C93.831 636.326 95.7306 637.666 97.5901 639.305C102.27 643.435 104.48 643.295 104.48 638.876C104.48 633.606 106.22 630.826 112.69 625.746C117.62 621.866 119.26 619.726 122.5 612.956C130.78 595.646 142.52 588.215 166.98 584.845C179.68 583.095 187.6 579.755 195.02 573.046L199.68 568.826L199.6 555.326C199.56 547.896 199.88 539.016 200.32 535.586C200.75 532.156 200.849 528.926 200.53 528.406C200.21 527.896 197.26 526.475 193.97 525.265C186.12 522.365 179.67 517.586 172.98 509.696C166.03 501.506 162.78 495.926 160.4 488.086C157.49 478.526 157.83 468.385 161.42 457.635C163.04 452.785 164.66 446.545 165.02 443.765C165.67 438.855 165.58 438.616 161.97 435.456C159.93 433.656 157.07 431.735 155.62 431.185ZM837.51 394.005C826.08 381.986 822.77 380.816 806.13 382.876C792.98 384.496 789.07 385.425 784.85 387.895L781.72 389.725L781.22 404.275C780.65 421.175 778.62 429.406 770.36 448.326C767.6 454.656 765.12 460.496 764.86 461.326C764.591 462.187 767.54 466.777 771.78 472.076C788.31 492.776 804.25 530.016 806.12 552.326C806.42 555.906 807.08 560.215 807.6 561.925L808.53 565.015L822.26 565.685C844.61 566.775 855.71 570.355 870.19 581.145C879.89 588.365 886.26 596.036 891.11 606.326C893.05 610.446 895.13 614.836 895.73 616.076C897.12 618.946 898.55 618.916 901.75 615.956C904.98 612.966 907.81 607.445 910.02 599.845C911.39 595.105 911.6 591.945 911.06 584.015L910.37 574.116L917.89 566.965C924.73 560.465 925.54 559.275 926.94 553.685C928.93 545.735 928.96 525.965 926.98 517.605C925.24 510.205 922.52 504.096 917.15 495.496L913.199 489.156L912.47 470.496C911.81 453.386 911.53 451.295 909.07 445.485C905.81 437.775 902.62 432.656 899 429.326C897.5 427.946 894.42 424.605 892.14 421.895L888 416.975L887.87 406.055C887.76 396.485 887.49 394.895 885.69 393.095L883.64 391.036L879.44 394.626C873.94 399.335 867.409 402.335 859.82 403.645C850.44 405.255 846.66 403.625 837.51 394.005ZM621.48 288.276C612.16 285.816 595.81 288.726 582.06 295.286C560.47 305.586 533.96 329.615 525.48 346.565L521.51 354.496L522.51 425.826L525.05 428.076C526.45 429.316 528.21 430.326 528.97 430.326C529.73 430.326 537.69 426.746 546.67 422.376C561.41 415.196 571.34 409.415 587.48 398.626C591.76 395.766 594.22 394.855 598.59 394.525C603.66 394.145 604.51 394.385 607.39 396.965C613.02 402.005 613.19 410.466 607.76 415.446C604.73 418.226 595.48 422.305 592.1 422.355C590.93 422.375 588.18 423.725 585.98 425.355C578.55 430.845 565.51 439.326 564.47 439.326C563.9 439.326 561.54 440.535 559.21 442.015C556.88 443.495 549.81 447.085 543.48 449.985C534.25 454.225 531.35 456.076 528.78 459.366C522.62 467.255 522.48 468.727 522.48 524.916C522.48 575.673 522.48 575.696 524.65 578.015C525.849 579.285 527.329 580.325 527.94 580.326C528.56 580.326 535.03 577.386 542.33 573.786C549.63 570.186 557.71 566.405 560.29 565.385C567.181 562.645 588.13 552.456 594.48 548.755C600.69 545.125 612.11 541.325 616.84 541.315C621.16 541.305 629.96 536.036 635.97 529.866C641.07 524.636 642.42 522.126 649.14 505.326C653.25 495.056 659.089 483.835 662.99 478.725C666.419 474.225 677.38 466.236 685.83 462.076C699.13 455.516 710.961 452.695 733.16 450.765C743.13 449.895 746.77 446.715 752.33 434.055C760.12 416.285 761.6 401.185 757.56 380.416C751.75 350.496 737.26 328.786 712.34 312.666C705.13 308.006 692.38 302.466 686.15 301.286C681.489 300.406 667.79 301.826 665.92 303.376C664.91 304.216 664.59 307.656 664.65 317.166C664.75 332.266 663.56 336.686 658.48 340.116C652.5 344.145 645.21 341.125 642.52 333.515C641.33 330.135 641.27 328.185 642.199 322.755C643.639 314.356 642.32 305.256 638.92 300.076C635.93 295.526 627.6 289.896 621.48 288.276ZM415.98 287.826C406.46 287.826 405.6 288.005 397.98 291.645C389.04 295.915 387.42 297.136 383.33 302.725C381.07 305.815 380.48 307.685 380.49 311.725C380.5 316.805 383.6 325.235 386.6 328.355C389.43 331.305 394.25 337.905 395.85 341.045C399.57 348.315 393.59 358.326 385.54 358.326C380.46 358.326 376.21 354.796 372.41 347.406C362.071 327.316 360.501 322.636 360.49 311.776C360.48 309.546 359.94 307.186 359.28 306.526C357.13 304.376 346.53 305.085 340.77 307.765C325.79 314.745 304.76 333.005 294.28 348.135C283.33 363.955 277.12 393.376 280.41 413.796C282.07 424.075 286.58 435.505 289.59 437.065C290.91 437.735 294.99 438.305 298.67 438.315C314.05 438.345 332.76 445.096 349.89 456.786C355.21 460.416 359.96 463.145 360.45 462.845C360.941 462.544 361.88 460.614 362.54 458.565C366.14 447.446 369.85 442.016 374.98 440.326C378.88 439.036 382.74 440.266 386.73 444.076C391.23 448.366 390.64 454.296 384.38 467.536C381.27 474.126 379.28 479.696 379.28 481.836C379.28 487.236 394.69 513.476 402.87 521.996C404.781 523.986 410.62 527.336 417.98 530.666C428.8 535.556 451.439 545.915 460.48 550.105C466.91 553.095 477.9 560.185 485.48 566.235C489.599 569.525 493.689 572.245 494.56 572.275C495.42 572.305 497.06 571.316 498.2 570.076C500.21 567.896 500.28 566.605 500.7 525.826C500.94 502.726 500.83 479.096 500.47 473.326C499.62 459.686 496.87 453.645 487.01 443.815C478.66 435.485 466.69 429.005 456.48 427.265C448.34 425.875 443 422.945 441.02 418.765C439.07 414.665 439.08 411.975 441.03 407.855C446.52 396.295 463.2 399.976 493.8 419.505C496.97 421.525 498.96 422.245 499.61 421.595C500.23 420.975 500.47 407.095 500.25 383.715C499.85 341.336 499.7 340.455 491.49 332.416C473.861 315.176 459.75 303.426 450 297.866C437.23 290.586 427.86 287.826 415.98 287.826ZM312.73 194.286C307.8 192.426 305.69 192.195 297.98 192.675C288.23 193.295 282.82 194.686 274.04 198.836C262.66 204.226 250.3 218.966 247.42 230.576C246.1 235.885 240.95 241.315 237.2 241.345C232.57 241.375 220.81 244.415 215.77 246.885C205.64 251.835 195.65 262.135 189.84 273.605C188.01 277.215 187.31 280.466 187 286.826C186.77 291.466 186.13 296.116 185.57 297.156C184.179 299.756 180.959 301.666 174.48 303.736C161.01 308.056 150.01 317.806 143.71 331.036C140.23 338.336 139.97 339.536 139.63 350.045L139.27 361.276L132.41 366.805C125.291 372.565 121.23 377.735 117.96 385.235C115.5 390.855 115.37 402.456 117.71 406.876C120.1 411.395 128.219 418.535 130.27 417.925C131.21 417.645 135.75 416.675 140.35 415.755C154.74 412.905 164.42 415.116 173.86 423.425C177.66 426.775 178.73 427.256 180.38 426.376C183.05 424.956 187.74 425.046 189.7 426.576C192.15 428.486 195.47 434.546 195.48 437.116C195.48 442.126 190.79 448.585 184.14 452.725C182.48 453.755 180.23 456.805 178.77 460.005C176.54 464.875 176.29 466.525 176.66 474.175C177.01 481.365 177.57 483.726 180 488.196C183.39 494.416 190.71 501.186 197.93 504.786C203.79 507.706 203.9 507.725 205.27 506.076C205.84 505.386 208.21 501.226 210.54 496.826C218.77 481.266 227.81 469.535 241 457.275C248.65 450.175 255.96 444.305 260.79 441.385C262.9 440.115 264.39 438.526 264.12 437.836C259.81 426.616 257.56 412.825 257.51 397.465C257.48 387.455 257.38 386.985 254.44 383.275C250.61 378.435 243.249 374.825 232.98 372.735C218.61 369.825 209.441 364.876 206.83 358.616C205.21 354.746 205.76 351.866 208.73 348.616L210.76 346.395L208.71 341.616C207.58 338.976 206.18 334.216 205.59 331.036C204.18 323.296 206.19 317.766 211.2 315.666C214.33 314.366 214.89 314.416 218.02 316.345C221.75 318.655 223.46 322.905 223.47 329.895C223.48 336.055 226.18 343.876 229.42 347.116C231.06 348.746 236.82 351.856 242.65 354.246C248.33 356.576 255.08 359.556 257.64 360.866C263.19 363.706 262.81 364.026 268.42 351.826C270.7 346.876 275.25 338.756 278.52 333.776C281.8 328.796 284.48 324.045 284.48 323.215C284.48 322.385 283.09 320.375 281.39 318.765C276.69 314.305 269.03 304.366 266.39 299.326C263.38 293.576 263.09 282.586 265.8 277.536C268.14 273.186 273 270.326 277.98 270.366C282.32 270.396 284.51 271.616 286.32 275.005C288 278.175 287.76 280.695 285.3 285.765C283.32 289.845 283.25 290.526 284.55 293.026C286.81 297.386 298.199 308.325 300.48 308.326C301.6 308.326 305.77 305.695 309.75 302.475C317.1 296.535 324.76 291.665 334.23 286.925C337.12 285.475 339.48 283.905 339.48 283.425C339.48 282.955 337.69 279.025 335.49 274.696C326.82 257.586 325.42 241.605 331.05 223.975L333.87 215.135L331.51 210.675C328.16 204.365 319.6 196.896 312.73 194.286ZM717.1 195.345C712.12 195.315 706.46 197.566 703.92 200.576C700.24 204.956 700.68 210.106 705.9 223.486C708.32 229.726 710.86 237.676 711.54 241.156C713.26 249.976 712.18 264.066 709.03 273.925C705.34 285.465 705.36 285.555 713.04 288.815C722.17 292.695 730 297.965 738.4 305.885L745.58 312.666L752.68 309.246C760.28 305.586 769.089 297.726 770.1 293.696C770.8 290.896 770 285.756 767.81 278.956C765.95 273.186 766.88 271.985 772.48 272.975C782.37 274.715 788.64 282.565 788.75 293.315C788.86 305.155 782.71 314.876 769.5 323.746C765.56 326.386 762.08 329.216 761.76 330.026C761.451 330.837 763.3 335.626 765.86 340.666C768.43 345.706 772.06 353.876 773.94 358.826C776.18 364.746 777.8 367.695 778.67 367.435C796.73 362.035 807.05 360.635 817.22 362.215C829.76 364.165 835.17 366.746 842.76 374.416C846.48 378.175 850.31 381.705 851.26 382.265C853.94 383.825 858.58 383.465 863.3 381.315C865.68 380.245 869 378.375 870.69 377.175L873.75 374.996L873.19 364.916C872.57 353.626 870.54 346.735 864.82 336.425C857.33 322.936 850.61 315.625 836.26 305.345L826.98 298.685L823.3 287.986C816.4 267.916 804.48 255.686 786.64 250.376C778.46 247.936 778.03 247.455 773.55 235.725C769.62 225.465 765.9 219.856 758.4 212.916C748.54 203.786 728.87 195.415 717.1 195.345ZM611.35 140.336C592.57 132.346 577.26 132.235 562.4 139.965C553.38 144.665 549.18 149.286 545.77 158.246L542.94 165.666L536.59 167.786C529.33 170.216 525.11 174.196 523.6 180.036C522.869 182.875 522.51 189.818 522.384 209.144C522.741 209.995 523.091 210.944 523.428 212C524.429 215.498 544.038 193 550.357 201.385C556.676 209.771 545.234 218.393 531.119 229.029C527.147 232.556 524.335 236.444 522.34 240.358C522.347 244.819 522.357 249.607 522.37 254.746C522.46 290.745 522.67 295.976 524.11 298.246C526.18 301.516 530.63 306.326 531.58 306.326C531.992 306.324 536.511 302.434 541.65 297.675C563.14 277.755 588.16 265.755 610.6 264.605C619.59 264.135 622.3 264.376 628.15 266.156C635.21 268.306 643.67 273.225 651.199 279.555C655.319 283.035 655.5 283.085 659.199 281.765C661.279 281.025 667.03 280.376 671.98 280.336C677.779 280.286 681.6 279.796 682.72 278.946C685.22 277.036 689.32 267.565 690.59 260.715C692.55 250.176 691.33 240.206 686.54 227.826C679.29 209.046 679.98 200.265 689.86 185.845C692.4 182.135 694.48 178.535 694.48 177.855C694.479 175.735 689.009 168.955 683.74 164.536C677.96 159.706 672.68 157.196 669.84 157.946C668.4 158.316 666.54 157.025 662.93 153.135C657.33 147.125 655.39 145.905 647.1 143.225C640.64 141.135 629.689 140.746 622.699 142.366C618.92 143.236 617.61 142.995 611.35 140.336ZM450.98 135.255C444.27 133.416 441.28 133.156 432.48 133.586C420.47 134.186 413.469 136.375 404.03 142.475C400.761 144.595 397.742 146.325 397.33 146.326C396.92 146.326 393.99 145.656 390.82 144.826C383.379 142.886 368.54 142.905 360.94 144.855C351.71 147.225 337.02 154.926 331.52 160.286C326.46 165.216 322.48 171.826 322.48 175.295C322.48 176.805 324.05 178.096 328.48 180.246C336.57 184.166 343.48 189.375 348.84 195.595L353.3 200.765L358.64 198.616C369.72 194.136 375.31 193.456 384.59 195.446C391.47 196.916 394.48 199.935 394.48 205.355C394.48 208.565 393.84 210.115 391.6 212.355C388.73 215.225 388.66 215.236 377.35 215.036C366.8 214.846 365.58 215.026 360.48 217.536C354.02 220.706 350.17 225.905 348.39 233.855C346.72 241.325 347.73 253.606 350.57 260.326C354.6 269.876 360.84 279.635 364.14 281.555C367.83 283.715 369.19 283.265 379.42 276.565C383 274.215 389.541 270.865 393.95 269.105C401.56 266.075 402.68 265.906 415.48 265.876C426.49 265.846 430.38 266.246 436.57 268.036C453.52 272.946 469.05 282.016 484.94 296.276C489.87 300.706 494.38 304.326 494.97 304.326C495.56 304.326 497.04 303.625 498.26 302.765C500.46 301.225 500.48 300.955 500.48 274.946C500.48 245.736 500.12 243.515 493.95 235.086C492.04 232.486 487.14 227.605 483.05 224.255C474.07 216.875 471.73 212.765 473.39 207.225C474.02 205.125 475.23 202.716 476.08 201.866C479.32 198.626 489.21 201.045 493.88 206.215C494.93 207.375 496.4 208.326 497.14 208.326C498.25 208.326 498.39 205.686 497.9 194.076C497.02 172.926 496.06 170.455 488.27 169.385L484.24 168.826L482.57 162.196C480.98 155.876 477.47 149.945 473.01 146.065C468.64 142.265 458.6 137.345 450.98 135.255Z" fill="black"/>
</svg>
